<svg viewBox="0 0 16 16" xmlns="http://www.w3.org/2000/svg"><path d="m4.55 7c.2484 0 .45.23403636.45.52247273v5.95505457c0 .2884363-.2016.5224727-.45.5224727h-2.1c-.2484 0-.45-.2340364-.45-.5224727v-5.95505457c0-.28843637.2016-.52247273.45-.52247273zm1.99470232 6.2c-.30453355-.0358914-.52735618-.3017209-.54470232-.6262021.01734614 0 .01344187-2.90574124 0-4.42981097.01344187-.52494762.10849456-1.45775341.39801308-1.87014415.70754979-1.00783529 1.2048039-1.66588438 1.494055-2.04814196.28919533-.38219922.63606239-.75482742.64571153-1.03997406.01299566-.38365822-.00122706-.39101158 0-.8301701s.20787483-.85555666.73361352-.85555666c.25405684 0 .45875247.05690094.647831.30084547.30313917.35512021.51508557.9180018.51508557 1.80886622 0 .89086443-.92440995 2.56321861-.92615009 2.57028831 0 0 4.03755019-.00091049 4.03824879 0 .617146-.00412399.9535916.54543196.9535916 1.11718426 0 .53545241-.3658865.9817892-.8460567 1.05689844.291259.13877993.5005282.46956405.5005282.85147147 0 .476042-.3251704.87271453-.756091.94029533.2320814.1449077.3753126.405835.3753126.7016615 0 .3984233-.2598575.7333509-.6142543.8137126.2107194.1379629.3469229.3931709.3469229.6817607 0 .4522312-.3348196.8227001-.7628956.8570157z" fill="#fff" fill-rule="evenodd"/></svg>